<?xml version="1.0" standalone="no"?>
<!DOCTYPE svg PUBLIC "-//W3C//DTD SVG 20010904//EN"
 "http://www.w3.org/TR/2001/REC-SVG-20010904/DTD/svg10.dtd">
<svg version="1.0" xmlns="http://www.w3.org/2000/svg"
 width="626.000000pt" height="626.000000pt" viewBox="0 0 626.000000 626.000000"
 preserveAspectRatio="xMidYMid meet">

<g transform="translate(0.000000,626.000000) scale(0.100000,-0.100000)"
fill="#000000" stroke="none">
<path d="M0 3130 l0 -3130 3130 0 3130 0 0 3130 0 3130 -3130 0 -3130 0 0
-3130z m3170 2610 c-12 -8 -11 -10 8 -10 12 0 22 5 22 10 0 6 33 10 80 10 44
0 80 -4 80 -10 0 -5 19 -9 43 -9 23 0 83 -2 132 -5 50 -3 124 -7 165 -10 41
-2 82 -6 90 -9 49 -17 112 -29 125 -23 9 3 26 -1 38 -9 12 -8 28 -15 36 -15
28 0 171 -42 171 -50 0 -5 -8 -11 -17 -13 -10 -2 -4 -2 14 0 17 2 51 -4 75
-13 23 -9 59 -16 78 -16 19 0 29 -2 23 -5 -31 -12 -8 -23 48 -23 53 0 64 -3
81 -25 21 -27 77 -55 110 -55 11 0 26 -6 33 -12 33 -30 45 -38 54 -38 5 0 11
-7 15 -15 3 -8 12 -15 20 -15 31 0 106 -44 106 -62 0 -14 8 -18 40 -18 34 0
40 -3 40 -21 0 -14 5 -19 14 -16 16 6 53 -29 42 -40 -4 -4 -11 -1 -16 7 -5 8
-12 11 -16 7 -11 -10 34 -54 62 -61 13 -4 24 -13 24 -21 0 -8 9 -15 20 -15 34
0 68 -22 81 -51 6 -16 15 -29 20 -29 5 0 9 -8 9 -17 1 -18 32 -63 44 -63 4 0
31 -25 61 -55 38 -37 55 -63 55 -80 0 -16 6 -25 16 -25 20 0 44 -24 44 -44 0
-9 5 -16 10 -16 6 0 10 -15 10 -32 1 -35 20 -68 39 -68 24 0 41 -29 41 -68 0
-23 6 -45 15 -52 8 -7 15 -20 16 -29 0 -11 2 -12 6 -3 10 26 43 -62 43 -115 0
-29 5 -53 10 -53 6 0 10 12 10 28 1 27 1 27 15 -7 18 -39 21 -76 5 -51 -13 20
-13 1 1 -41 22 -70 32 -89 44 -89 15 0 35 -79 36 -143 0 -45 17 -101 18 -62 1
12 4 15 10 10 12 -13 20 -86 30 -278 4 -94 12 -161 18 -165 6 -4 16 -30 21
-57 6 -28 14 -60 17 -72 5 -15 3 -23 -4 -23 -16 0 -14 -87 2 -93 10 -3 10 -9
0 -26 -7 -11 -13 -45 -13 -75 0 -35 5 -56 13 -59 9 -3 9 -7 0 -19 -7 -8 -12
-32 -12 -54 2 -69 -14 -200 -21 -179 -9 23 -18 -72 -18 -175 -1 -36 -6 -78
-12 -95 -7 -18 -11 -93 -11 -192 1 -144 -1 -162 -16 -165 -12 -2 -20 -22 -30
-78 -8 -41 -17 -95 -22 -120 l-9 -45 -1 45 c-1 27 -5 40 -10 35 -9 -10 -39
-134 -49 -202 -2 -18 -8 -33 -12 -33 -4 0 -10 -15 -14 -32 -5 -26 -9 -30 -16
-18 -8 12 -10 10 -10 -8 0 -32 -18 -62 -35 -62 -10 0 -15 -10 -15 -30 0 -30
14 -41 23 -17 2 6 8 9 12 5 4 -4 -16 -30 -44 -59 -36 -36 -51 -60 -51 -78 0
-30 -60 -101 -85 -101 -8 0 -15 -7 -15 -15 0 -9 -6 -18 -14 -21 -8 -3 -22 -17
-31 -31 -14 -21 -15 -27 -4 -34 11 -7 9 -10 -8 -15 -14 -4 -23 -14 -23 -25 0
-11 -7 -19 -15 -19 -20 0 -65 -47 -65 -69 0 -25 -66 -91 -91 -91 -22 0 -69
-45 -69 -65 0 -8 -8 -15 -19 -15 -11 0 -21 -9 -25 -22 -5 -18 -8 -20 -15 -9
-7 11 -13 10 -34 -4 -14 -9 -28 -23 -31 -31 -3 -8 -12 -14 -21 -14 -8 0 -15
-8 -15 -18 0 -10 -12 -25 -27 -33 -38 -19 -53 -35 -53 -53 0 -18 -16 -22 -22
-5 -4 13 -58 1 -58 -13 0 -15 -27 -38 -44 -38 -9 0 -16 -4 -16 -10 0 -5 -9
-10 -20 -10 -11 0 -20 -5 -20 -11 0 -7 -13 -10 -34 -7 -28 3 -33 1 -31 -13 4
-19 -21 -29 -71 -29 -17 0 -37 -7 -44 -15 -7 -8 -19 -15 -26 -15 -8 0 -14 -4
-14 -10 0 -5 -18 -13 -40 -16 -22 -4 -40 -10 -40 -15 0 -5 -7 -9 -15 -9 -9 0
-12 6 -8 18 4 13 1 12 -16 -6 -12 -12 -26 -20 -32 -17 -5 4 -9 1 -9 -4 0 -6
-18 -14 -40 -17 -22 -4 -40 -10 -40 -14 0 -4 -18 -10 -40 -14 -22 -3 -40 -11
-40 -16 0 -6 -60 -10 -156 -10 -101 0 -163 -4 -177 -12 -12 -6 -62 -12 -112
-13 -173 -4 -190 -5 -177 -14 18 -11 -144 -21 -340 -21 -120 0 -158 -3 -158
-12 0 -9 -18 -13 -53 -14 -28 -1 -46 1 -39 3 26 10 10 23 -27 23 -22 0 -43 5
-46 10 -3 6 -19 10 -35 10 -16 0 -32 5 -35 10 -4 6 -57 10 -126 10 -73 0 -119
4 -119 10 0 6 -21 10 -46 10 -32 0 -51 5 -59 17 -8 11 -30 17 -68 19 -31 2
-65 8 -76 13 -11 6 -31 11 -45 11 -19 0 -26 5 -26 20 0 11 -5 20 -11 20 -5 0
-7 -4 -4 -10 4 -6 -8 -10 -28 -10 -31 0 -79 26 -99 55 -5 6 -11 5 -17 -4 -8
-12 -14 -12 -33 -4 -13 7 -17 12 -10 12 29 2 -2 21 -33 21 -55 0 -85 16 -85
45 0 27 -11 29 -122 28 -34 0 -38 3 -38 24 0 31 -36 62 -72 63 -16 0 -28 4
-28 9 0 5 -13 14 -30 21 -18 8 -30 20 -30 31 0 15 -8 19 -40 19 -29 0 -40 4
-40 15 0 21 -45 65 -66 65 -12 0 -15 6 -11 21 6 23 -42 74 -99 105 -19 10 -34
22 -34 26 0 5 -7 8 -15 8 -11 0 -15 11 -15 40 0 23 -5 40 -11 40 -6 0 -24 11
-41 25 -16 14 -35 25 -41 25 -7 0 -6 -4 3 -10 13 -9 13 -10 0 -10 -8 1 -24 7
-34 15 -11 8 -14 15 -8 15 7 0 12 5 12 10 0 6 -9 10 -20 10 -17 0 -20 7 -20
40 0 32 -4 40 -19 40 -11 0 -23 12 -31 30 -7 16 -19 30 -26 30 -10 0 -13 7 -8
24 6 26 -21 75 -42 76 -15 0 -34 45 -34 83 0 44 -10 77 -24 77 -17 1 -56 90
-56 128 0 32 -14 43 -23 20 -3 -7 -3 1 -1 17 3 18 -5 60 -21 105 -29 82 -49
154 -59 213 -4 21 -11 35 -16 32 -14 -9 -29 71 -37 198 -3 48 -9 87 -14 87 -5
0 -9 54 -9 120 0 68 -4 120 -9 120 -6 0 -12 -19 -14 -42 -2 -24 -3 67 -2 202
1 135 7 290 14 345 6 55 13 125 16 155 3 30 10 57 16 58 5 2 9 22 8 45 0 33
-2 38 -9 22 -13 -29 -12 -6 2 40 11 38 12 39 19 15 7 -23 7 -23 8 8 1 17 -4
32 -10 32 -6 0 -8 11 -5 28 3 15 7 77 8 137 2 115 9 154 18 95 l5 -34 17 53
c14 44 14 52 2 47 -18 -7 -18 4 2 32 9 13 13 30 10 38 -7 18 7 56 29 78 9 9
22 48 29 86 6 38 15 72 19 76 4 4 7 25 7 46 0 21 4 38 8 38 5 0 17 18 27 40
10 22 24 40 32 40 7 0 13 6 13 13 0 8 9 22 20 32 11 10 20 26 20 36 0 10 5 21
11 25 6 3 8 17 5 30 -5 17 -2 24 9 24 11 0 15 11 15 40 0 28 4 40 14 40 8 0
18 9 21 20 3 11 15 20 26 20 10 0 19 7 19 15 0 21 66 121 85 128 8 4 20 18 27
32 6 14 19 25 30 25 11 0 18 7 18 18 0 10 12 25 27 33 29 15 73 58 73 72 0 17
29 37 53 37 27 0 63 44 59 70 -2 13 -1 13 7 1 8 -12 15 -9 38 15 15 17 36 33
46 37 9 4 17 17 17 30 0 18 10 29 40 43 22 10 40 25 40 32 0 6 12 12 26 12 24
0 63 16 74 29 17 23 73 51 100 51 38 0 67 14 102 52 19 21 35 28 62 28 20 0
36 5 36 10 0 6 20 10 45 10 35 0 52 6 72 24 20 19 34 23 54 19 16 -3 36 -2 46
2 10 5 28 7 41 6 13 -2 33 4 46 12 13 9 41 19 62 23 36 7 37 8 14 14 -47 13
58 22 195 17 72 -3 119 -2 105 2 -24 7 -24 7 8 20 22 9 52 12 95 7 37 -4 109
0 177 9 62 8 143 16 179 17 64 1 64 1 21 8 -40 6 -37 7 30 8 52 1 70 -1 60 -8z
m-95 -5239 c-9 -8 -36 -10 -30 -2 2 4 11 8 20 8 8 0 13 -3 10 -6z m85 -5 c0
-2 -8 -10 -17 -17 -16 -13 -17 -12 -4 4 13 16 21 21 21 13z m17 -33 c-4 -3 1
-16 10 -27 18 -21 18 -21 -4 -2 -20 16 -23 36 -6 36 4 0 3 -3 0 -7z"/>
<path d="M2377 5144 c-58 -14 -180 -70 -257 -119 -22 -14 -42 -25 -46 -25 -3
0 -18 -9 -33 -19 -65 -46 -576 -288 -734 -347 -192 -72 -321 -112 -409 -128
-36 -6 -48 -14 -48 -30 0 -20 57 -26 248 -26 195 0 150 -12 400 106 63 30 116
54 118 54 2 0 41 18 87 39 169 80 280 131 283 129 1 -2 -161 -86 -361 -186
-384 -194 -451 -238 -411 -267 28 -21 116 -30 261 -28 l131 2 214 96 c118 53
222 98 230 101 37 14 -149 -85 -285 -151 -155 -75 -215 -118 -215 -153 0 -45
143 -55 307 -23 91 17 134 38 293 140 13 9 21 11 17 5 -4 -7 -48 -40 -98 -74
-50 -34 -99 -76 -110 -94 -22 -35 -25 -76 -7 -94 43 -43 300 37 399 124 l44
39 -47 -51 c-79 -87 -110 -174 -73 -204 23 -19 114 -6 185 26 39 17 76 44 102
73 l41 46 -34 -62 c-32 -59 -33 -64 -19 -90 35 -63 132 -49 211 30 24 24 37
32 31 20 -7 -12 -12 -32 -12 -45 0 -81 115 -55 210 49 l50 55 2 201 2 202 7
-285 c3 -157 7 -398 8 -536 l1 -251 134 -62 133 -63 76 30 c87 36 141 68 199
120 42 38 88 120 88 159 0 40 -39 129 -71 159 -17 16 -37 43 -45 60 -44 93
-275 119 -309 36 -20 -47 -15 -70 22 -103 42 -36 111 -70 162 -78 41 -7 56
-28 47 -64 -7 -29 -132 -120 -244 -176 l-62 -31 0 173 c0 204 17 939 26 1114
5 108 8 122 25 126 13 3 19 14 19 31 0 31 -4 32 -37 6 -14 -11 -31 -20 -37
-20 -6 0 3 9 20 19 95 58 77 205 -30 246 -153 59 -263 -160 -123 -245 18 -11
27 -20 21 -20 -6 0 -23 10 -38 21 -19 15 -31 18 -38 11 -13 -13 7 -52 27 -52
12 0 15 -19 14 -107 -1 -60 -4 -98 -6 -87 -3 17 -14 22 -53 27 -97 12 -113 37
-135 213 -30 237 -120 325 -329 323 -45 0 -107 -7 -139 -15z m268 -58 c98 -41
150 -132 166 -296 18 -166 49 -210 159 -218 51 -3 70 -8 70 -19 0 -10 -4 -11
-19 -3 -11 5 -41 10 -66 10 -97 0 -140 62 -155 225 -14 148 -60 239 -141 280
-65 34 -230 37 -313 5 -16 -6 -31 -8 -33 -6 -4 4 45 20 122 40 38 10 171 -2
210 -18z m522 -282 c-3 -3 -12 -4 -19 -1 -8 3 -5 6 6 6 11 1 17 -2 13 -5z
m215 -986 c-9 -9 -15 -9 -24 0 -9 9 -7 12 12 12 19 0 21 -3 12 -12z"/>
<path d="M3616 5145 c-114 -32 -177 -128 -201 -312 -15 -116 -31 -169 -57
-191 -9 -7 -42 -16 -74 -20 -52 -6 -59 -10 -62 -31 -4 -23 -3 -23 66 -19 81 4
104 19 133 84 11 23 23 84 29 135 5 52 17 115 25 141 24 70 85 133 148 154 65
23 194 23 257 0 25 -9 34 -13 20 -10 -14 3 -68 8 -122 11 -124 7 -180 -10
-236 -71 -48 -52 -69 -112 -82 -237 -10 -98 -34 -173 -63 -198 -9 -7 -53 -18
-97 -23 l-80 -11 0 -76 c0 -42 -3 -144 -6 -226 -7 -171 -5 -181 65 -253 89
-92 201 -111 201 -34 0 13 -5 32 -11 43 -6 11 7 3 28 -18 65 -65 131 -87 187
-62 41 19 43 60 5 126 l-32 58 41 -46 c68 -76 242 -136 287 -99 36 29 3 121
-69 196 -57 58 -60 69 -6 21 100 -91 353 -170 398 -125 17 17 15 55 -5 90 -10
17 -60 59 -110 95 -127 88 -125 95 4 16 94 -58 120 -69 198 -85 99 -19 249
-24 289 -8 35 13 33 44 -5 79 -17 16 -123 74 -235 130 -112 55 -204 103 -204
106 0 3 15 -1 33 -9 17 -8 110 -48 206 -90 l174 -77 111 -6 c127 -6 263 9 286
33 13 14 11 19 -27 52 -25 21 -183 108 -368 201 -179 90 -323 166 -321 168 2
2 145 -62 317 -143 l314 -147 99 -8 c78 -6 248 0 352 13 6 1 11 7 11 14 0 7
-3 12 -6 12 -3 -1 -13 1 -21 5 -8 3 -40 11 -70 18 -66 14 -211 59 -300 92
-251 94 -648 279 -824 384 -134 80 -263 140 -336 157 -79 19 -188 19 -254 1z"/>
<path d="M825 4490 c-4 -6 -10 -8 -14 -5 -5 2 -7 -6 -6 -18 4 -35 5 -37 15
-37 5 0 7 7 4 15 -4 8 -2 15 3 15 5 0 9 9 10 20 2 22 -2 25 -12 10z"/>
<path d="M2812 3878 c-65 -10 -105 -30 -129 -64 -10 -14 -32 -42 -49 -62 -75
-88 -94 -180 -53 -257 53 -100 129 -148 393 -247 244 -92 313 -126 361 -180
60 -66 51 -82 -112 -197 -278 -197 -310 -224 -364 -304 -33 -51 -39 -67 -39
-113 0 -86 60 -183 175 -283 22 -19 85 -80 141 -135 155 -156 157 -184 26
-359 -106 -141 -136 -209 -136 -312 -1 -59 4 -89 17 -113 24 -45 31 -35 16 22
-16 66 -6 146 28 208 15 28 71 98 124 153 108 114 128 144 136 214 10 84 -22
134 -191 306 -182 184 -221 238 -213 295 10 80 72 136 324 295 87 55 175 117
196 138 96 96 89 205 -17 289 -28 23 -159 94 -291 158 -241 118 -361 191 -398
242 -28 37 -11 78 30 78 36 0 140 49 176 83 34 32 36 76 4 112 -27 33 -82 44
-155 33z m70 -60 c-9 -9 -15 -9 -24 0 -9 9 -7 12 12 12 19 0 21 -3 12 -12z"/>
<path d="M2855 3212 c-114 -73 -160 -152 -136 -234 17 -56 100 -137 204 -200
l78 -47 83 59 83 60 6 72 c2 40 4 109 3 153 l-1 80 -125 47 c-69 26 -127 47
-130 48 -3 0 -32 -17 -65 -38z m215 -207 c0 -91 -2 -165 -5 -165 -18 0 -184
134 -188 151 -8 30 15 71 60 107 37 28 110 71 126 72 4 0 7 -74 7 -165z"/>
<path d="M520 3180 c0 -22 5 -40 10 -40 6 0 10 18 10 40 0 22 -4 40 -10 40 -5
0 -10 -18 -10 -40z"/>
<path d="M3158 2657 l-78 -52 0 -175 0 -176 64 -63 63 -63 64 64 c100 98 159
196 159 263 0 44 -60 143 -121 199 -33 31 -63 56 -67 55 -4 0 -42 -23 -84 -52z
m74 -94 c54 -57 68 -81 68 -123 0 -42 -29 -94 -90 -160 l-50 -55 1 180 c1 175
4 205 18 205 4 0 27 -21 53 -47z"/>
<path d="M5651 2284 c0 -11 3 -14 6 -6 3 7 2 16 -1 19 -3 4 -6 -2 -5 -13z"/>
<path d="M2979 2043 c-60 -66 -88 -122 -89 -174 0 -55 51 -146 124 -218 l64
-63 36 48 36 49 0 160 0 161 -48 47 c-26 26 -53 47 -59 47 -6 0 -35 -26 -64
-57z m111 -209 l0 -166 -24 29 c-77 92 -92 145 -63 216 18 42 66 99 78 91 5
-3 9 -80 9 -170z"/>
<path d="M3144 1538 c-52 -58 -52 -59 -47 -231 5 -185 9 -215 25 -199 7 7 13
79 15 194 3 101 6 188 8 193 1 6 10 -8 20 -29 16 -39 16 -70 -2 -136 -6 -22
-4 -23 9 -12 9 7 21 32 28 57 13 46 3 114 -24 163 l-12 23 -20 -23z"/>
</g>
</svg>
